<?xml version="1.0" encoding="UTF-8"?>
<svg version="1.2" baseProfile="tiny-ps" xmlns="http://www.w3.org/2000/svg" viewBox="0 0 1254 1254">
<title>NubCoders</title>
<g>
<circle cx="627" cy="627" r="627" fill="#05090F"/>
<path d="M0 0 C10.44963876 -0.06987835 20.89922083 -0.1230018 31.34904671 -0.15543652 C36.20267181 -0.17101292 41.05613564 -0.19210237 45.90966797 -0.22631836 C50.60405918 -0.25920083 55.29829644 -0.27691316 59.99279404 -0.28463173 C61.77312514 -0.29012389 63.55344897 -0.30084674 65.33371353 -0.31719017 C94.01557972 -0.5697408 116.70287255 8.90150322 137.32421875 29.09375 C139.11719216 30.89064677 140.90492209 32.6927901 142.6875 34.5 C143.58533203 35.39847656 144.48316406 36.29695313 145.40820312 37.22265625 C149.16516716 41.00439148 152.87422912 44.78500718 156.33203125 48.84375 C161.53107803 54.8956638 167.32923753 60.39576603 173 66 C186.10540193 78.9516514 186.10540193 78.9516514 191.4296875 85.20703125 C194.28593719 88.46827157 197.40619001 91.46637162 200.5 94.5 C204.88915859 98.84231819 209.15199156 103.19070501 213.1328125 107.9140625 C216.34349153 111.50088803 219.8139398 114.83290827 223.23608398 118.21655273 C226.74453559 121.70067178 230.06183709 125.27139608 233.26171875 129.04296875 C236.21846803 132.37180333 239.43544824 135.44222964 242.6015625 138.5703125 C244.6198473 140.61489417 246.51499518 142.68836018 248.375 144.875 C251.41430723 148.43286202 254.67363694 151.71441994 258 155 C261.89896095 158.85121613 265.60824302 162.76421734 269.16015625 166.94140625 C271.95766867 170.07153162 274.96624506 172.98685658 277.95336914 175.93383789 C281.17998653 179.13385771 284.17930461 182.45072272 287.125 185.90625 C289.48345274 188.53985556 291.9844568 191.01826218 294.5 193.5 C297.59491502 196.55337951 300.61934277 199.62323685 303.4375 202.9375 C306.896438 206.99654291 310.65835029 210.71728898 314.47436523 214.43725586 C317.22698274 217.1421056 319.82623029 219.91767281 322.34375 222.84375 C326.18419456 227.28347272 330.31371504 231.38860386 334.5 235.5 C338.5412709 239.46897625 342.55087677 243.40941259 346.22265625 247.7265625 C349.36921789 251.38569029 352.72481424 254.78711029 356.15234375 258.1796875 C356.70149445 258.72332947 357.25064514 259.26697144 357.81643677 259.8270874 C360.10823641 262.09112701 362.40373251 264.35134258 364.70336914 266.60742188 C366.39900186 268.2730413 368.08851301 269.94467587 369.77734375 271.6171875 C370.30222885 272.12861298 370.82711395 272.64003845 371.36790466 273.16696167 C372.61695159 274.40717829 373.81402517 275.69933895 375 277 C375 277.66 375 278.32 375 279 C375.66 279 376.32 279 377 279 C378.46412659 280.48660278 378.46412659 280.48660278 380.15844727 282.53173828 C383.73563169 286.73627099 387.52846282 290.62592651 391.46484375 294.4921875 C392.85494379 295.86966444 394.24491418 297.24727223 395.63476562 298.625 C397.80129119 300.76653766 399.96940629 302.90642173 402.13989258 305.04394531 C404.25251779 307.1265556 406.35903353 309.21518989 408.46484375 311.3046875 C409.44903542 312.26868973 409.44903542 312.26868973 410.45310974 313.25216675 C411.35018394 314.14417282 411.35018394 314.14417282 412.26538086 315.05419922 C412.7949791 315.57634003 413.32457733 316.09848083 413.870224 316.63644409 C415 318 415 318 415 320 C415.7734375 320.37125 415.7734375 320.37125 416.5625 320.75 C419.18406477 322.09439219 421.69567204 323.57807521 424.21875 325.09765625 C428.61756564 327.32600365 433.09537045 327.14021091 437.92816162 327.12457275 C438.73291719 327.1259829 439.53767275 327.12739305 440.36681485 327.12884593 C443.0671519 327.13249969 445.76743646 327.12916195 448.46777344 327.12597656 C450.40296978 327.12737142 452.33816581 327.12927079 454.27336121 327.13163757 C458.44486486 327.13613639 462.61635867 327.1379907 466.78786469 327.13809967 C473.39597561 327.13924087 480.00403075 327.15208759 486.61212158 327.16766357 C487.7281837 327.17023643 488.84424581 327.17280928 489.99412799 327.1754601 C492.27676904 327.18072698 494.55941006 327.18601246 496.84205103 327.19131613 C512.22494999 327.22638428 527.6077804 327.25298468 542.99072266 327.25048828 C553.36713441 327.24889489 563.74335635 327.265051 574.11970735 327.30119491 C579.60543293 327.31958392 585.09084193 327.32906005 590.57659149 327.31671906 C595.74779504 327.30519948 600.91843437 327.31717836 606.08956337 327.34635353 C607.97597805 327.35294099 609.86244527 327.35121972 611.74883842 327.34005547 C623.7339041 327.27507453 633.77726434 328.70089738 645 333 C645 333.66 645 334.32 645 335 C645.87785156 335.24492188 646.75570312 335.48984375 647.66015625 335.7421875 C655.58812747 338.72792637 661.86352462 345.47566639 667.19140625 351.90234375 C669.3439193 354.39888697 671.65169343 356.68700631 674 359 C676.93118191 361.89591958 679.76403174 364.80242571 682.4375 367.9375 C686.10677302 372.23133013 690.11886892 376.15136612 694.15625 380.09375 C696.31930101 382.25029847 698.32528969 384.50439985 700.31640625 386.8203125 C704.80985485 392.01214195 709.73125057 396.74743447 714.65429688 401.52734375 C715.68973633 402.54634766 715.68973633 402.54634766 716.74609375 403.5859375 C717.37185303 404.1948584 717.9976123 404.8037793 718.64233398 405.43115234 C720 407 720 407 720 409 C720.99 409.33 721.98 409.66 723 410 C724.1875 412.0625 724.1875 412.0625 725 414 C685.52541609 414.09166269 646.05084611 414.16209306 606.57617694 414.20426132 C601.91015945 414.20926382 597.24414218 414.21444114 592.578125 414.21972656 C591.64925016 414.2207758 590.72037532 414.22182505 589.76335275 414.22290608 C574.74592163 414.24028589 559.72855209 414.27181015 544.71115744 414.30861118 C529.28867478 414.3460882 513.86622425 414.36825011 498.44369793 414.37635398 C488.93601802 414.38182776 479.42851221 414.39908248 469.92088592 414.43166587 C463.39092056 414.45289732 456.8610445 414.45918063 450.33104718 414.45400551 C446.57005092 414.45145707 442.80935776 414.4552143 439.04841614 414.4768219 C404.17458824 414.66726351 404.17458824 414.66726351 388.5625 406.125 C387.89984131 405.77695312 387.23718262 405.42890625 386.55444336 405.0703125 C376.43832694 399.67438914 367.46330706 393.25616253 359.9765625 384.4921875 C354.96171622 378.69507359 349.45107866 373.3813208 344 368 C338.11055822 362.18592585 332.26276486 356.40963243 326.88671875 350.109375 C322.48952854 345.19326172 317.69260432 340.63255271 313 336 C301.28008216 324.43006282 301.28008216 324.43006282 297.53125 320.03125 C292.54578403 314.18871846 286.96036903 308.89352686 281.5 303.5 C279.29902946 301.32597227 277.10164212 299.14840934 274.90625 296.96875 C274.4174939 296.48829224 273.92873779 296.00783447 273.4251709 295.51281738 C270.71214369 292.81856228 268.14697627 290.04709743 265.65039062 287.15039062 C261.8568149 282.7721503 257.80564838 278.69629438 253.6875 274.625 C252.91494873 273.85623535 252.14239746 273.0874707 251.34643555 272.29541016 C248.90005818 269.86114235 246.4504586 267.43015894 244 265 C240.76786312 261.79463822 237.53917465 258.58585927 234.3125 255.375 C233.21844849 254.293396 233.21844849 254.293396 232.10229492 253.18994141 C228.10940292 249.21595558 224.323657 245.13779655 220.64624023 240.87109375 C218.17468791 238.06196176 215.54125685 235.43542702 212.875 232.8125 C212.32440918 232.2656958 211.77381836 231.7188916 211.20654297 231.15551758 C209.47349183 229.43450493 207.73720227 227.71682168 206 226 C193.21599544 213.36597539 193.21599544 213.36597539 189.53125 209.03125 C184.24934673 202.82566414 178.29020574 197.22499023 172.5 191.5 C159.09657284 178.24753663 159.09657284 178.24753663 153.83398438 172.05664062 C149.46139856 167.15319775 144.67421166 162.61439542 140 158 C128.16447889 146.31593894 128.16447889 146.31593894 122.76171875 139.984375 C119.04432475 135.79715515 114.98728052 131.92776887 111 128 C105.69933186 122.77844631 100.46919656 117.57660569 95.66796875 111.88671875 C93.55160407 109.49279804 91.25940875 107.25940875 89 105 C88.67 206.97 88.34 308.94 88 414 C27.84102564 414 27.84102564 414 12.5546875 399.71484375 C3.37693026 390.15846617 -0.12746198 380.4740043 -0.12304783 367.29776859 C-0.12503888 365.98104131 -0.12702993 364.66431402 -0.12908131 363.30768591 C-0.12622875 361.85836778 -0.12328317 360.40904983 -0.12025452 358.95973206 C-0.12069081 357.41101515 -0.12156678 355.86229832 -0.12284368 354.31358188 C-0.1250773 350.06519926 -0.12108285 345.8168419 -0.11606562 341.56846249 C-0.11174505 336.98435729 -0.11320869 332.40025351 -0.1139679 327.81614685 C-0.11449211 319.87629929 -0.11135599 311.93645995 -0.10573006 303.99661446 C-0.0976012 292.51694636 -0.09499841 281.03728224 -0.09374207 269.55761158 C-0.09155373 250.93236705 -0.08489954 232.30712691 -0.07543945 213.68188477 C-0.0662597 195.58976259 -0.05918162 177.49764161 -0.05493164 159.40551758 C-0.05466892 158.2902203 -0.05440619 157.17492301 -0.05413551 156.02582885 C-0.05283047 150.43068065 -0.05156676 144.83553244 -0.05032361 139.24038422 C-0.03995779 92.82691978 -0.02234539 46.41346012 0 0 Z " fill="#F8B60A" transform="translate(276,400)"/>
<path d="M0 0 C1.31698985 -0.00085442 2.63397971 -0.00170885 3.99087834 -0.00258917 C7.61228101 -0.00480625 11.23365363 -0.00085141 14.85505247 0.0041889 C18.77307852 0.00853361 22.69110307 0.00704413 26.60913086 0.00628662 C33.38607937 0.00576392 40.16301821 0.00888411 46.93996429 0.01452446 C56.73812162 0.02267397 66.53627431 0.02525821 76.33443466 0.02651245 C92.233803 0.02869756 108.13316619 0.03534294 124.03253174 0.04481506 C139.47133356 0.0540032 154.91013398 0.06107717 170.34893799 0.06532288 C171.77796684 0.06571696 171.77796684 0.06571696 173.23586497 0.06611901 C178.01552015 0.06742411 182.79517534 0.0686878 187.57483053 0.06993091 C227.18606006 0.08028666 266.79728384 0.09789022 306.4085083 0.12025452 C306.4085083 2.12025452 306.4085083 2.12025452 304.4006958 4.25697327 C303.40530292 5.21348909 302.4076394 6.16764413 301.4085083 7.12025452 C300.15867848 8.35346968 298.91146546 9.58934029 297.6663208 10.82728577 C296.99214111 11.49695374 296.31796143 12.1666217 295.62335205 12.85658264 C294.58887939 13.88428772 294.58887939 13.88428772 293.5335083 14.93275452 C292.85159424 15.60628967 292.16968018 16.27982483 291.46710205 16.97377014 C287.49865439 20.92332043 283.74226369 24.98012791 280.08770752 29.22059631 C277.4929588 32.15600483 274.70951441 34.88348391 271.9085083 37.62025452 C267.78636526 41.69090003 263.83127014 45.8102678 260.0803833 50.22962952 C257.39763018 53.26339706 254.48038271 56.05707414 251.5960083 58.89759827 C249.59909442 60.92660541 247.74557372 63.00974426 245.9085083 65.18275452 C236.15527641 76.40901457 223.56516809 85.03216221 208.3385222 86.29144812 C202.29324498 86.56791347 196.2427974 86.50370483 190.19293213 86.47328186 C188.15505373 86.47411374 186.1171755 86.47633325 184.07929993 86.47982788 C179.70923394 86.48475855 175.33930262 86.48071829 170.96924782 86.4698143 C164.05609774 86.45339807 157.14311496 86.46194416 150.22996521 86.47465515 C131.82073044 86.50471831 113.41152682 86.50329407 95.00227994 86.4844023 C82.89234823 86.4720685 70.78260698 86.4739258 58.67269725 86.50279009 C51.80294588 86.51801522 44.93371213 86.51055558 38.0639931 86.48607993 C33.7904547 86.47600424 29.51715348 86.48670516 25.24364281 86.50319481 C23.26515672 86.50664384 21.28663418 86.50156054 19.30819702 86.48722649 C16.60252239 86.46883915 13.89863409 86.48131001 11.19300842 86.50120544 C10.41449723 86.48848583 9.63598603 86.47576621 8.83388358 86.46266115 C2.93812088 86.55578385 -0.98478475 88.47963737 -5.5914917 92.12025452 C-10.55773662 97.4785714 -11.88938497 101.51283882 -11.8699646 108.73847961 C-11.875757 109.50960516 -11.8815494 110.2807307 -11.88751733 111.07522368 C-11.904532 113.66091427 -11.90739508 116.24642652 -11.91033936 118.83216858 C-11.91963652 120.68495624 -11.92980487 122.53773971 -11.94078064 124.39051819 C-11.96811855 129.42316976 -11.9832413 134.45579328 -11.99620867 139.48849964 C-12.01182261 144.74694861 -12.03861836 150.00534015 -12.0642395 155.26374817 C-12.11105806 165.2225634 -12.14778729 175.18138939 -12.18091238 185.14025855 C-12.21911202 196.47753504 -12.26852783 207.81475389 -12.31889653 219.15198183 C-12.42226216 242.4746967 -12.51150751 265.79744857 -12.5914917 289.12025452 C-13.2514917 289.12025452 -13.9114917 289.12025452 -14.5914917 289.12025452 C-15.98406982 287.70423889 -15.98406982 287.70423889 -17.6227417 285.71400452 C-21.85122811 280.74137454 -26.44189746 276.19639545 -31.0914917 271.62025452 C-36.22203421 266.57076323 -41.20870048 261.49910422 -45.89813232 256.03627014 C-48.80806006 252.74372215 -51.95538391 249.69536571 -55.0914917 246.62025452 C-59.45896685 242.29933755 -63.6978309 237.97324929 -67.65789795 233.27259827 C-71.09554089 229.44605026 -74.80775513 225.88537656 -78.46307373 222.26820374 C-82.12460694 218.63024896 -85.66462343 214.95646876 -88.94054699 210.96127415 C-90.52777298 209.09198122 -90.52777298 209.09198122 -92.39164448 207.66997433 C-95.36303571 205.22843267 -97.2992126 203.30497587 -98.23663902 199.50522041 C-98.48095814 196.29155011 -98.50315488 193.14392742 -98.449646 189.92127991 C-98.45709335 188.70725494 -98.46454071 187.49322998 -98.47221375 186.24241638 C-98.48504034 182.92460885 -98.46666411 179.60987594 -98.43297553 176.29240727 C-98.40392551 172.80188402 -98.4117304 169.31141697 -98.41444397 165.82080078 C-98.41345494 159.9505373 -98.38508307 154.08090634 -98.33929443 148.21083069 C-98.28689929 141.46422129 -98.27259776 134.71840383 -98.2803275 127.97161299 C-98.28729773 121.44524616 -98.27123788 114.91914217 -98.24357033 108.39283562 C-98.23199058 105.63447705 -98.22731319 102.87624244 -98.22836876 100.11786079 C-98.2184985 66.20541036 -98.2184985 66.20541036 -89.7789917 50.80775452 C-89.43062256 50.14807678 -89.08225342 49.48839905 -88.72332764 48.80873108 C-87.70128152 46.89948569 -86.6514235 45.00866257 -85.5914917 43.12025452 C-85.04621826 42.12123108 -84.50094482 41.12220764 -83.93914795 40.09291077 C-72.09269571 19.90470243 -51.26016136 8.29513055 -29.36883545 1.88197327 C-19.70037259 -0.06771676 -9.82674299 -0.02365307 0 0 Z " fill="#FCC924" transform="translate(695.5914916992188,399.87974548339844)"/>
<path d="M0 0 C1.28275694 -0.00128164 1.28275694 -0.00128164 2.59142816 -0.00258917 C5.47351983 -0.00424386 8.35555403 0.00127725 11.23764038 0.00672913 C13.29702249 0.00701103 15.3564047 0.00685321 17.41578674 0.00628662 C23.0208702 0.00599876 28.62593241 0.01189373 34.23101091 0.01886058 C40.08334783 0.02509593 45.93568518 0.02569806 51.7880249 0.02688599 C62.87670237 0.02999876 73.96537003 0.03821144 85.05404317 0.04823548 C97.67537169 0.05939827 110.29670066 0.06490748 122.91803288 0.06993091 C148.88704161 0.08039409 174.85604162 0.0979925 200.82504272 0.12025452 C201.15504272 0.78025452 201.48504272 1.44025452 201.82504272 2.12025452 C197.72217072 3.26158042 193.76845907 3.26227774 189.53692627 3.25396729 C188.69370792 3.25623284 187.85048956 3.2584984 186.98171914 3.26083261 C184.15197329 3.2671705 181.32227536 3.26634339 178.49252319 3.26551819 C176.46564675 3.26850971 174.43877087 3.27191223 172.41189575 3.2756958 C166.90390649 3.2845383 161.39593275 3.28687395 155.88793707 3.28751159 C151.29503659 3.28846021 146.70213974 3.29213777 142.10924065 3.29568368 C131.27964286 3.30382835 120.45005338 3.30626782 109.62045288 3.30555725 C98.4323278 3.30495569 87.24425082 3.31552305 76.05613792 3.33130091 C66.46119867 3.34435206 56.8662752 3.34974221 47.27132714 3.34910184 C41.53573486 3.34884624 35.80018536 3.35173183 30.0646019 3.36227989 C24.67530151 3.37192072 19.28608517 3.37206784 13.89678192 3.36476326 C11.91417189 3.36371256 9.93155673 3.36610882 7.94895554 3.37212372 C5.252267 3.37977808 2.55587354 3.37524285 -0.14080811 3.36749268 C-0.93378929 3.37263624 -1.72677048 3.3777798 -2.5437814 3.38307923 C-7.94668552 3.34852627 -7.94668552 3.34852627 -10.17495728 1.12025452 C-6.97767334 -0.47838745 -3.51120097 -0.01266757 0 0 Z " fill="#DCC325" transform="translate(708.1749572753906,482.87974548339844)"/>
<path d="M0 0 C0.99 0.99 1.98 1.98 3 3 C-97.32 3 -197.64 3 -301 3 C-301 2.67 -301 2.34 -301 2 C-279.96594607 1.82922899 -258.93181572 1.6700028 -237.89761686 1.51822662 C-235.38671149 1.50008462 -232.87580697 1.48182778 -230.3649025 1.46356201 C-189.46844592 1.16704174 -148.57341442 0.95533677 -107.67578125 0.96875 C-106.36801381 0.96912105 -106.36801381 0.96912105 -105.03382683 0.96949959 C-88.07260454 0.97460605 -71.11140759 0.98973871 -54.15021664 1.02321291 C-47.84786404 1.03559047 -41.54551138 1.04510452 -35.24315113 1.05261564 C-30.89912589 1.05811341 -26.55514426 1.06820325 -22.21113777 1.08198977 C-18.97499249 1.09107035 -15.7388407 1.0938591 -12.50268555 1.09765625 C-11.33899633 1.10282005 -10.17530712 1.10798386 -8.9763546 1.11330414 C-7.92996126 1.11337715 -6.88356792 1.11345016 -5.8054657 1.11352539 C-4.4398552 1.11685631 -4.4398552 1.11685631 -3.04665661 1.12025452 C-1.00632034 1.22779158 -1.00632034 1.22779158 0 0 Z " fill="#F8CC0A" transform="translate(998,811)"/>
<path d="M0 0 C0.84700419 -0.00085442 1.69400838 -0.00170885 2.56667936 -0.00258917 C5.42113216 -0.00424381 8.27552693 0.00127716 11.12997437 0.00672913 C13.16965229 0.00701103 15.20933031 0.00685321 17.24900818 0.00628662 C22.80037442 0.00599876 28.35171922 0.01189366 33.90308046 0.01886058 C39.69936293 0.02509601 45.49564585 0.02569807 51.29193115 0.02688599 C62.27436077 0.02999874 73.25678047 0.03821139 84.23920572 0.04823548 C96.73961754 0.05939834 109.24002982 0.0649075 121.74044538 0.06993091 C147.46062591 0.08039404 173.18079763 0.09799241 198.90097046 0.12025452 C198.90097046 0.45025452 198.90097046 0.78025452 198.90097046 1.12025452 C197.31896316 1.12660243 197.31896316 1.12660243 195.70499611 1.13307858 C170.07615531 1.23614206 144.44734337 1.34487355 118.81855202 1.45959377 C106.42481058 1.51493888 94.03106628 1.56842297 81.63729858 1.61756897 C70.83848208 1.66039506 60.03968688 1.70666903 49.24090326 1.75713307 C43.5198072 1.78374672 37.79871541 1.80860009 32.07759476 1.82932854 C26.69819815 1.84887324 21.31884216 1.87301047 15.93948174 1.90074539 C13.96010892 1.91012733 11.98072719 1.91779847 10.00134087 1.92367363 C7.30887309 1.93191543 4.61650438 1.94618661 1.92407227 1.96203613 C0.73634419 1.96350329 0.73634419 1.96350329 -0.47537839 1.96500009 C-4.41628334 1.91406857 -4.41628334 1.91406857 -8.09902954 3.12025452 C-8.75902954 2.46025452 -9.41902954 1.80025452 -10.09902954 1.12025452 C-6.92015931 -0.4691806 -3.49046965 -0.01271533 0 0 Z " fill="#13140A" transform="translate(706.0990295410156,485.87974548339844)"/>
<path d="M0 0 C0.99 0.99 1.98 1.98 3 3 C-44.19 3 -91.38 3 -140 3 C-140 2.67 -140 2.34 -140 2 C-128.11301707 1.83990855 -116.22596414 1.68572033 -104.33884048 1.53643799 C-102.41136699 1.51223081 -100.48389454 1.48793942 -98.55642319 1.46356201 C-71.16447804 1.11793103 -43.7807698 0.8858126 -16.38647461 1.03710938 C-15.32913116 1.04133911 -14.27178772 1.04556885 -13.18240356 1.04992676 C-11.23948817 1.05805174 -9.29658375 1.0703723 -7.35372925 1.08776855 C-5.23563369 1.09606487 -3.11742338 1.05399868 -1 1 C-0.67 0.67 -0.34 0.34 0 0 Z " fill="#F8D611" transform="translate(998,811)"/>
<path d="M0 0 C6.0017498 4.93964239 11.49128976 10.33805317 16.97021484 15.83984375 C18.49336388 17.36834058 20.02177002 18.89143238 21.55078125 20.4140625 C26.34969509 25.2100012 31.02595754 30.05989348 35.43994141 35.21728516 C37.97283488 38.1116808 40.69677954 40.80398389 43.4375 43.5 C43.97826172 44.03625 44.51902344 44.5725 45.07617188 45.125 C46.38176617 46.41904036 47.69052996 47.70988174 49 49 C48.34 49.66 47.68 50.32 47 51 C46.67 50.01 46.34 49.02 46 48 C44.67623586 47.31452884 43.34156784 46.64993689 42 46 C40.39453125 44.37109375 40.39453125 44.37109375 38.8125 42.4375 C35.53780124 38.55975179 32.04784418 35.00163988 28.40625 31.46875 C26.46068756 29.47265347 24.65121817 27.45004638 22.83984375 25.3359375 C17.69999388 19.40927714 12.0234276 14.01392273 6.41210938 8.5390625 C5.58646484 7.724375 4.76082031 6.9096875 3.91015625 6.0703125 C3.15871338 5.33570801 2.40727051 4.60110352 1.63305664 3.84423828 C0 2 0 2 0 0 Z " fill="#EBC013" transform="translate(432,450)"/>
<path d="M0 0 C3.62455354 1.4953315 5.58936816 3.54332228 8.125 6.5 C11.34547214 10.17599945 14.64267473 13.69575896 18.125 17.125 C20.95295651 19.91836377 23.68158775 22.71695035 26.25 25.75 C31.75721318 32.20397381 37.96780401 38.04310188 44 44 C43.34 44.66 42.68 45.32 42 46 C41.52433594 45.45214844 41.04867187 44.90429688 40.55859375 44.33984375 C35.68056326 38.81500258 30.61094542 33.55934069 25.375 28.375 C20.99496465 24.03783787 16.72693708 19.70152083 12.76171875 14.9765625 C9.85718178 11.71781371 6.70420458 8.6986987 3.55371094 5.67871094 C2.33282554 4.48862573 1.1617476 3.24788079 0 2 C0 1.34 0 0.68 0 0 Z " fill="#E6BE18" transform="translate(950,761)"/>
<path d="M0 0 C11.23184272 1.65812792 20.04604089 11.70376506 27 20 C27.51304687 20.60972656 28.02609375 21.21945312 28.5546875 21.84765625 C29.70895728 23.22691081 30.85545117 24.61266808 32 26 C31.34 26.33 30.68 26.66 30 27 C29.443125 26.278125 28.88625 25.55625 28.3125 24.8125 C24.43216059 20.09316828 20.09219846 16.15979364 15.35546875 12.33203125 C14.90816406 11.89246094 14.46085938 11.45289063 14 11 C14 10.34 14 9.68 14 9 C12.9171875 8.62875 12.9171875 8.62875 11.8125 8.25 C9 7 9 7 6.4375 4.9375 C4.13856875 3.11014439 2.84877273 2.4220404 0 2 C0 1.34 0 0.68 0 0 Z " fill="#E8C21D" transform="translate(918,734)"/>
<path d="M0 0 C0.68320312 0.68449219 1.36640625 1.36898437 2.0703125 2.07421875 C4.1416342 4.14626927 6.22131507 6.20960127 8.3046875 8.26953125 C15.96548094 15.86118395 23.35068733 23.48887978 30 32 C29.01 32.495 29.01 32.495 28 33 C27.59910156 32.52691406 27.19820312 32.05382812 26.78515625 31.56640625 C23.4872043 27.73001317 20.10264984 24.05321382 16.5 20.5 C13.0137616 17.06119342 9.75093729 13.50984023 6.57421875 9.78515625 C5.13786422 8.15633734 3.64479921 6.67229057 2.0625 5.1875 C0 3 0 3 0 0 Z " fill="#E4BA0F" transform="translate(502,522)"/>
<path d="M0 0 C0.66 0 1.32 0 2 0 C0.41060574 3.93214301 -2.16342502 6.33020346 -5.1875 9.25 C-9.22556143 13.18669582 -13.04252155 17.20497692 -16.66015625 21.5390625 C-18 23 -18 23 -20 24 C-19.875 21.8125 -19.875 21.8125 -19 19 C-17.61944183 17.78379399 -16.22714405 16.57607233 -14.7578125 15.46875 C-11.98563312 13.15244012 -9.80156425 10.35956365 -7.515625 7.57421875 C-7.01546875 7.05472656 -6.5153125 6.53523438 -6 6 C-5.34 6 -4.68 6 -4 6 C-3.34 4.68 -2.68 3.36 -2 2 C-1.34 2 -0.68 2 0 2 C0 1.34 0 0.68 0 0 Z " fill="#F2D230" transform="translate(992,408)"/>
<path d="M0 0 C0 3 0 3 -1.28515625 4.62573242 C-2.16494141 5.4819519 -2.16494141 5.4819519 -3.0625 6.35546875 C-3.69414063 6.97744141 -4.32578125 7.59941406 -4.9765625 8.24023438 C-5.64429688 8.88283203 -6.31203125 9.52542969 -7 10.1875 C-8.00160156 11.16879883 -8.00160156 11.16879883 -9.0234375 12.16992188 C-10.67578441 13.78686135 -12.33471601 15.39640491 -14 17 C-14.66 16.67 -15.32 16.34 -16 16 C-10.96679794 10.22494276 -5.96260189 4.82082706 0 0 Z " fill="#EEC714" transform="translate(631,419)"/>
<path d="M0 0 C0.66 0 1.32 0 2 0 C3.33984375 1.36328125 3.33984375 1.36328125 4.9375 3.3125 C9.63967367 8.86146342 14.81944144 13.90375433 20 19 C19.34 19.66 18.68 20.32 18 21 C17.55269531 20.48050781 17.10539062 19.96101562 16.64453125 19.42578125 C12.71935313 14.89801715 8.69605376 10.57408943 4.359375 6.43359375 C2.87140455 4.99081867 1.43186936 3.49846793 0 2 C0 1.34 0 0.68 0 0 Z " fill="#E5BC11" transform="translate(482,502)"/>
<path d="M0 0 C6 6 12 12 18 18 C17.34 18.66 16.68 19.32 16 20 C15.43152344 19.35933594 14.86304688 18.71867188 14.27734375 18.05859375 C10.07195836 13.34771963 5.8574199 8.75730136 1.21484375 4.47265625 C0 3 0 3 0 0 Z " fill="#E7B80B" transform="translate(555,578)"/>
<path d="M0 0 C3.85523273 0.56634392 6.45707633 1.64608684 9.6875 3.8125 C10.45449219 4.31394531 11.22148438 4.81539062 12.01171875 5.33203125 C14.10479071 7.08790891 14.98253798 8.49171127 16 11 C15.34 11 14.68 11 14 11 C14 10.34 14 9.68 14 9 C12.9171875 8.62875 12.9171875 8.62875 11.8125 8.25 C9 7 9 7 6.4375 4.9375 C4.13856875 3.11014439 2.84877273 2.4220404 0 2 C0 1.34 0 0.68 0 0 Z " fill="#F5CA1D" transform="translate(918,734)"/>
<path d="M0 0 C1.03125 0.00322266 2.0625 0.00644531 3.125 0.00976562 C4.74535156 0.02233398 4.74535156 0.02233398 6.3984375 0.03515625 C8.03039062 0.04192383 8.03039062 0.04192383 9.6953125 0.04882812 C12.38807539 0.06063849 15.08072938 0.07710847 17.7734375 0.09765625 C17.7734375 0.42765625 17.7734375 0.75765625 17.7734375 1.09765625 C16.83491943 1.13524048 16.83491943 1.13524048 15.87744141 1.17358398 C13.05089131 1.28940898 10.22468581 1.4121961 7.3984375 1.53515625 C5.92117188 1.59413086 5.92117188 1.59413086 4.4140625 1.65429688 C3.00253906 1.71713867 3.00253906 1.71713867 1.5625 1.78125 C0.69318848 1.81790771 -0.17612305 1.85456543 -1.07177734 1.89233398 C-3.2748887 1.97167169 -3.2748887 1.97167169 -5.2265625 3.09765625 C-5.8865625 2.43765625 -6.5465625 1.77765625 -7.2265625 1.09765625 C-4.66933021 -0.1809599 -2.85919148 -0.01570984 0 0 Z " fill="#22210E" transform="translate(703.2265625,485.90234375)"/>
<path d="M0 0 C0.99 0.33 1.98 0.66 3 1 C0.36 3.64 -2.28 6.28 -5 9 C-5.99 8.67 -6.98 8.34 -8 8 C-5.36 5.36 -2.72 2.72 0 0 Z " fill="#251F11" transform="translate(968,436)"/>
<path d="M0 0 C0.33 0.99 0.66 1.98 1 3 C-0.27126684 5.41102332 -1.57570511 7.6874917 -3 10 C-3.6802367 11.32646156 -4.35492261 12.65608877 -5 14 C-5.66 14 -6.32 14 -7 14 C-5.53967505 8.68972746 -3.01679014 4.53669968 0 0 Z " fill="#E4C013" transform="translate(614,436)"/>
<path d="M0 0 C0.99 0.33 1.98 0.66 3 1 C0.69 3.31 -1.62 5.62 -4 8 C-4.33 6.68 -4.66 5.36 -5 4 C-2.6875 1.9375 -2.6875 1.9375 0 0 Z " fill="#E3C22D" transform="translate(977,424)"/>
<path d="M0 0 C0.99 0.33 1.98 0.66 3 1 C0.36 3.64 -2.28 6.28 -5 9 C-5 4.61031544 -2.87194899 3.23094261 0 0 Z " fill="#1E1A10" transform="translate(984,419)"/>
<path d="M0 0 C3.7952131 1.49097658 5.61042731 3.75700849 8 7 C5 7 5 7 2.3125 4.625 C0 2 0 2 0 0 Z " fill="#DDB00E" transform="translate(469,611)"/>
<path d="M0 0 C0.66 0.33 1.32 0.66 2 1 C0.02 3.31 -1.96 5.62 -4 8 C-4.33 7.01 -4.66 6.02 -5 5 C-3.35 3.35 -1.7 1.7 0 0 Z " fill="#15130E" transform="translate(692,489)"/>
<path d="M0 0 C3.36720387 1.39332574 4.9859524 2.9789286 7 6 C4 6 4 6 1.8125 4.125 C0 2 0 2 0 0 Z " fill="#D8A70E" transform="translate(546,690)"/>
<path d="M0 0 C2.31 1.98 4.62 3.96 7 6 C6.34 6.66 5.68 7.32 5 8 C0 2.25 0 2.25 0 0 Z " fill="#E0B10B" transform="translate(434,574)"/>
<path d="M0 0 C0.33 0 0.66 0 1 0 C0.67 2.97 0.34 5.94 0 9 C-0.66 9 -1.32 9 -2 9 C-1.125 2.25 -1.125 2.25 0 0 Z " fill="#E7C50E" transform="translate(601,465)"/>
</g>
</svg>